<svg xmlns="http://www.w3.org/2000/svg" xmlns:xlink="http://www.w3.org/1999/xlink" version="1.1" x="0px" y="0px" viewBox="0 0 100 125" style="enable-background:new 0 0 100 100;" xml:space="preserve"><style type="text/css">
	.st0{fill:#1E120D;}
</style><g><path class="st0" d="M85.5,68.5l-8.9-8.9c0,0,0,0,0,0s0,0,0,0L65.3,48.3l20-20c0.9-0.9,0.9-2.3,0-3.2L74.8,14.7   c-0.4-0.4-1-0.7-1.6-0.7c-0.6,0-1.2,0.2-1.6,0.7l-20,20l-1.3-1.3c0,0,0,0,0,0s0,0,0,0L45.1,28c0,0,0,0,0,0s0,0,0,0L31.5,14.5   c-0.8-0.8-2.4-0.8-3.2,0L14.5,28.3c-0.9,0.9-0.9,2.3,0,3.2l20.2,20.2L19.1,67.3c-0.1,0.1-0.2,0.3-0.3,0.4c0,0,0,0.1-0.1,0.1   c-0.1,0.1-0.1,0.3-0.2,0.4c0,0,0,0,0,0.1L14,83.1c-0.2,0.8,0,1.7,0.6,2.3c0.4,0.4,1,0.7,1.6,0.7c0.2,0,0.4,0,0.7-0.1l14.9-4.5   c0,0,0,0,0.1,0c0.1,0,0.3-0.1,0.4-0.2c0,0,0.1,0,0.1-0.1c0.1-0.1,0.3-0.2,0.4-0.3l15.6-15.6l20.2,20.2c0.4,0.4,1,0.7,1.6,0.7   c0.6,0,1.2-0.2,1.6-0.7l13.8-13.8c0.4-0.4,0.7-1,0.7-1.6S85.9,68.9,85.5,68.5z M68.4,24.3l7.2,7.2L74,33.2L66.7,26L68.4,24.3z    M80.5,26.7l-1.6,1.6l-7.2-7.2l1.6-1.6L80.5,26.7z M63.5,29.2l7.2,7.2l-8.6,8.6l-1.3-1.3c0,0,0,0,0,0s0,0,0,0l-5.2-5.2c0,0,0,0,0,0   s0,0,0,0l-0.8-0.8L63.5,29.2z M24.3,79L21,75.7l0.8-2.5l5.1,5.1L24.3,79z M31.1,76.1l-3.6-3.6l-3.6-3.6l14-14l7.2,7.2L31.1,76.1z    M70.1,80.7L39.5,50.1c0,0,0,0,0,0s0,0,0,0L19.3,29.9l10.6-10.6l5.1,5.1l-4.2,4.2c-0.9,0.9-0.9,2.3,0,3.2c0.4,0.4,1,0.7,1.6,0.7   c0.6,0,1.2-0.2,1.6-0.7l4.2-4.2l2,2l-4.2,4.2c-0.9,0.9-0.9,2.3,0,3.2c0.4,0.4,1,0.7,1.6,0.7c0.6,0,1.2-0.2,1.6-0.7l4.2-4.2l2,2   l-4.2,4.2c-0.9,0.9-0.9,2.3,0,3.2c0.4,0.4,1,0.7,1.6,0.7c0.6,0,1.2-0.2,1.6-0.7l4.2-4.2l1.3,1.3c0,0,0,0,0,0s0,0,0,0l0.7,0.7   l-4.2,4.2c-0.9,0.9-0.9,2.3,0,3.2c0.4,0.4,1,0.7,1.6,0.7c0.6,0,1.2-0.2,1.6-0.7l4.2-4.2l2,2l-4.2,4.2c-0.9,0.9-0.9,2.3,0,3.2   c0.4,0.4,1,0.7,1.6,0.7c0.6,0,1.2-0.2,1.6-0.7l4.2-4.2l1.3,1.3c0,0,0,0,0,0s0,0,0,0l0.8,0.8l-4.2,4.2c-0.9,0.9-0.9,2.3,0,3.2   c0.4,0.4,1,0.7,1.6,0.7c0.6,0,1.2-0.2,1.6-0.7l4.2-4.2l2,2l-4.2,4.2c-0.9,0.9-0.9,2.3,0,3.2c0.4,0.4,1,0.7,1.6,0.7   c0.6,0,1.2-0.2,1.6-0.7l4.2-4.2l2,2l-4.2,4.2c-0.9,0.9-0.9,2.3,0,3.2c0.1,0.1,0.2,0.2,0.4,0.3c0.4,0.3,0.8,0.4,1.2,0.4   c0.6,0,1.2-0.2,1.6-0.7l4.2-4.2l5.7,5.7L70.1,80.7z"/></g><text x="0" y="115" fill="#000000" font-size="5px" font-weight="bold" font-family="'Helvetica Neue', Helvetica, Arial-Unicode, Arial, Sans-serif">Created by matias porta lezcano</text><text x="0" y="120" fill="#000000" font-size="5px" font-weight="bold" font-family="'Helvetica Neue', Helvetica, Arial-Unicode, Arial, Sans-serif">from the Noun Project</text></svg>