<svg xmlns="http://www.w3.org/2000/svg" xmlns:xlink="http://www.w3.org/1999/xlink" version="1.1" x="0px" y="0px" viewBox="0 0 100 125" enable-background="new 0 0 100 100" xml:space="preserve"><path d="M21.02,21.576L48.387,5.501C48.832,5.222,49.388,5,50,5c1.557,0,2.781,1.224,2.781,2.781v24.308l26.422,15.519  c0.389,0.222,0.723,0.556,1.001,1.001c0.278,0.445,0.389,0.946,0.389,1.391l0,0v25.921c0,1.502-1.224,2.781-2.781,2.781  c-1.557,0-2.781-1.279-2.781-2.781V54.839l-22.25,13.072v24.308C52.781,93.776,51.557,95,50,95s-2.781-1.224-2.781-2.781V67.911  l-22.25-13.072v21.082c0,1.502-1.224,2.781-2.781,2.781c-1.557,0-2.781-1.279-2.781-2.781V50V24.079  C19.407,22.967,20.074,22.021,21.02,21.576L21.02,21.576z M24.969,32.2l22.25-13.016v-6.564l-22.25,13.072V32.2z M47.219,25.581  l-22.25,13.072v6.508l22.25-13.072V25.581z M72.361,50L50,36.928L27.695,50L50,63.127L72.361,50z"/><text x="0" y="115" fill="#000000" font-size="5px" font-weight="bold" font-family="'Helvetica Neue', Helvetica, Arial-Unicode, Arial, Sans-serif">Created by CombineDesign</text><text x="0" y="120" fill="#000000" font-size="5px" font-weight="bold" font-family="'Helvetica Neue', Helvetica, Arial-Unicode, Arial, Sans-serif">from the Noun Project</text></svg>