<svg id="Layer_1" data-name="Layer 1" xmlns="http://www.w3.org/2000/svg" viewBox="0 0 1080 1080"><defs><style>.cls-1,.cls-2{fill:#fff;}.cls-1{opacity:0.8;}</style></defs><title>Artboard 1</title><path class="cls-1" d="M218.38,314.47c-3,0-4,1.15-4.78,3.85-7.19,23.11-14.58,46-21.86,69Q132.42,574.22,73.08,760.89c-1.25,4-.73,4.79,3.44,4.68,32.37-.21,64.63-.21,97.11,0,3.64,0,5.31-.93,6.24-4.68q27.94-102.74,56.21-205.57c8.95-32.89,18-65.88,27-98.67.31,0,.62.11.93.11L224.63,314.47Z"/><path class="cls-1" d="M500.66,314.47h-6.25c-3,0-4.05,1.15-4.78,3.85-7.18,23.11-14.57,46-22,69q-33.1,104.45-66.31,209.11C418.75,650.66,454.45,765,454.45,765s1.25-2.81,1.56-4Q484,658.27,512.21,555.43c8.95-32.89,18-65.89,27-98.67.31,0,.63.1.94.1L500.66,314.47Z"/><path class="cls-2" d="M401.47,596.64q-24.36-76.18-48.61-152.37c-11.24-35.08-22.59-70.26-33.72-105.44-3.44-10.62-10.2-17.38-20.72-20.61a73.46,73.46,0,0,0-20.08-3.33c-17.8-.21-35.6-.21-53.5-.31l39.34,142.49h.11c.52,2,1.14,3.85,1.66,5.83,4.79,17.59,9.58,35.28,14.47,52.87l.31,1q33.4,122.25,66.72,244.6a16.13,16.13,0,0,0,1.25,2.81c.21,1.25,1.35,1.66,3.95,1.66h98.78c2.6.11,3.75-.52,3.43-2.18C454.65,763.39,418.75,650.87,401.47,596.64Z"/><path class="cls-2" d="M1006.09,761.93c-.31-.73-67.86-212.44-101.48-317.56-11.24-35.08-22.59-70.26-33.72-105.44-3.44-10.61-10.2-17.38-20.72-20.61A74.23,74.23,0,0,0,830.09,315c-17.8-.2-35.6-.2-53.5-.31L816,457.07h.11c.52,2,1.14,3.85,1.66,5.83,4.79,17.59,9.58,35.28,14.47,52.87l.31,1h0Q866,639.06,899.3,761.41c.94,3.54,2.4,4.47,5.83,4.47,23.73-.2,89.1-.2,98,0C1006.82,766,1007.65,765.05,1006.09,761.93Z"/><path class="cls-1" d="M770.34,314.47c-3,0-4.06,1.15-4.79,3.85-7.18,23.11-14.57,46-21.85,69Q710.6,491.78,677.39,596.44C694.78,650.66,730.69,764,730.69,764a13.2,13.2,0,0,0,1.24-3q28-102.72,56.21-205.56c9-32.89,18-65.89,27-98.67.31,0,.62.1.93.1L776.59,314.47Z"/><path class="cls-2" d="M677.29,596.64q-24.36-76.18-48.61-152.37C617.44,409.19,606.1,374,595,338.83c-3.43-10.62-10.2-17.38-20.71-20.61a73.59,73.59,0,0,0-20.09-3.33c-17.8-.21-35.6-.21-53.5-.31L540,457.17h.11c.52,2,1.14,3.85,1.66,5.83,4.79,17.59,9.58,35.29,14.47,52.88l.31,1Q590,639.16,623.27,761.51a9.31,9.31,0,0,0,1.15,2.71l.2.21c.21.93,1,1.35,2.71,1.45a9.54,9.54,0,0,0,1.87.11c12.6-.11,98,0,98,0,2.6.1,3.75-.52,3.44-2.19C730.58,763.39,694.67,650.87,677.29,596.64Z"/></svg>