<svg id="_1" data-name=" 1" xmlns="http://www.w3.org/2000/svg" viewBox="0 0 1920 624.83"><defs><style>.cls-1{fill:#fff;}.cls-2{fill:#264653;}</style></defs><title>Crane</title><path class="cls-1" d="M497.89,412.39c-11.82,7.07-23.62,14.17-35.47,21.2-19,11.28-38.1,22.46-57.08,33.82a6.83,6.83,0,0,1-7.31.32Q227.23,386.64,56.37,305.66q-27-12.81-54.12-25.57A28.83,28.83,0,0,0-1,279Q-1,141.75-.94,4.49C-.94,3-2.09,1.11,0,0,2.17,3.92,6.14,5.93,9.4,8.63Q118.27,98.75,227.24,188.75L418.55,346.88c1.66,1.37,3.45,2.6,5.17,3.9,9.27,8.79,19.45,16.5,29.26,24.65C467.89,387.82,482.91,400.07,497.89,412.39Z"/><path class="cls-2" d="M1120.78,419c-.47,2.1-2.3,3.18-3.65,4.53Q1014.29,526.33,911.37,629a5.82,5.82,0,0,1-1.21.75c-1.07-1.45-.53-3-.53-4.41V387.49c0-1.66-.21-3.31-.32-5,.15-2.15.42-4.29.42-6.44V226.44c0-2.15.24-4.29.37-6.44l126.95,119.73c1,.91,2,1.73,3,2.59.06,1.33,1.09,2,1.92,2.78q12.35,11.58,24.7,23.13Z"/><path class="cls-1" d="M1718.78,258.41l181,33.61c6,1.12,12.08,2.36,18.14,3.4,2.31.39,3.32,1.18,3.32,3.8q-.13,99.72-.11,199.43a13.06,13.06,0,0,1-.43,1.85L1654.76,331.62c1.14-1.42,2.21-2.89,3.41-4.25Q1688.47,292.87,1718.78,258.41Z"/><path class="cls-2" d="M497.89,412.39c-15-12.32-30-24.57-44.91-37-9.81-8.15-20-15.86-29.26-24.65l74.14-30.66,225.76-93.26c5.22-2.15,10.35-4.5,15.57-6.64a11.87,11.87,0,0,1,4.32-.93q41,0,82,.07c-.92,2-2.93,2.61-4.6,3.6Q796.54,237.53,772.15,252c-18.69,10.81-37.44,21.54-56.07,32.46q-108,63.33-216,126.76C499.39,411.67,498.63,412,497.89,412.39Z"/><path class="cls-1" d="M1477.79,530.74c-9-3.88-17.11-9.44-25.55-14.32q-105-60.73-209.8-121.75-59.12-34.37-118.17-68.82c-.85-.49-1.63-1.12-2.43-1.68,2.14-.06,4.29-.16,6.44-.16q27.79-.11,55.59-.16l204,75.09q42.09,15.49,84.21,30.93c1.87.69,3.7,1.49,5.55,2.25Q1477.74,481.43,1477.79,530.74Z"/><path class="cls-2" d="M1477.79,530.74q-.07-49.32-.14-98.62c3-4.62,7-8.36,10.72-12.41q54-59.81,108.12-119.6c15.4-17,30.88-34,46.07-51.19,3.22-3.64,6.17-4.19,10.78-3.24,21.77,4.49,43.63,8.53,65.45,12.73q-30.32,34.47-60.62,69c-1.2,1.36-2.27,2.83-3.41,4.25q-21.73,24.43-43.45,48.88-65.47,74.11-130.92,148.26C1479.69,529.55,1479.26,530.88,1477.79,530.74Z"/><path class="cls-1" d="M772.15,252q24.38-14.5,48.73-29c1.67-1,3.68-1.62,4.6-3.6q39.67,0,79.32.09c1.77,0,3.66-.61,5.31.6-.13,2.15-.37,4.29-.37,6.44V376.14c0,2.15-.27,4.29-.42,6.44Z"/><path class="cls-1" d="M1120.78,419q-27-25.35-54.09-50.71L1042,345.16c-.83-.78-1.86-1.45-1.92-2.78l51.34-51.57c8.9-9,17.7-18,26.58-27,.88-.9,1.49-2.25,3-2.34V263q.16,30.59.32,61.17c-.1,10.31-.25,20.63-.3,30.95Q1120.88,387,1120.78,419Z"/><path class="cls-2" d="M1121.33,324.11q-.15-30.58-.32-61.17v-1.49c6.06,4.41,10.78,10.22,16,15.44,15.71,15.55,31.22,31.29,46.81,47l-55.59.16c-2.15,0-4.3.1-6.44.16A2.36,2.36,0,0,1,1121.33,324.11Z"/></svg>