<?xml version="1.0" encoding="utf-8"?>
<!-- Generator: Adobe Illustrator 22.0.1, SVG Export Plug-In . SVG Version: 6.00 Build 0)  -->
<svg version="1.1" id="Layer_1" xmlns="http://www.w3.org/2000/svg" xmlns:xlink="http://www.w3.org/1999/xlink" x="0px" y="0px"
	 viewBox="0 0 1080 1080" style="enable-background:new 0 0 1080 1080;" xml:space="preserve">
<style type="text/css">
	.st0{opacity:0.7;fill:#264653;enable-background:new    ;}
	.st1{fill:#264653;}
</style>
<title>Artboard 1</title>
<path class="st0" d="M218.4,314.5c-3,0-4,1.1-4.8,3.9c-7.2,23.1-14.6,46-21.9,69c-39.5,124.6-79.1,249.1-118.7,373.6
	c-1.2,4-0.7,4.8,3.4,4.7c32.4-0.2,64.6-0.2,97.1,0c3.6,0,5.3-0.9,6.2-4.7c18.6-68.5,37.4-137,56.2-205.6c8.9-32.9,18-65.9,27-98.7
	c0.3,0,0.6,0.1,0.9,0.1l-39.4-142.3H218.4z"/>
<path class="st0" d="M500.7,314.5h-6.2c-3,0-4,1.1-4.8,3.9c-7.2,23.1-14.6,46-22,69c-22.1,69.6-44.2,139.3-66.3,209.1
	c17.4,54.2,53.1,168.6,53.1,168.6s1.2-2.8,1.6-4c18.7-68.5,37.4-137,56.2-205.6c9-32.9,18-65.9,27-98.7c0.3,0,0.6,0.1,0.9,0.1
	L500.7,314.5z"/>
<path class="st1" d="M401.5,596.6c-16.2-50.8-32.4-101.6-48.6-152.4c-11.2-35.1-22.6-70.3-33.7-105.4c-3.4-10.6-10.2-17.4-20.7-20.6
	c-6.5-2-13.3-3.2-20.1-3.3c-17.8-0.2-35.6-0.2-53.5-0.3l39.3,142.5h0.1c0.5,2,1.1,3.9,1.7,5.8c4.8,17.6,9.6,35.3,14.5,52.9l0.3,1
	c22.3,81.5,44.5,163,66.7,244.6c0.3,1,0.7,1.9,1.2,2.8c0.2,1.2,1.4,1.7,4,1.7h98.8c2.6,0.1,3.8-0.5,3.4-2.2
	C454.6,763.4,418.8,650.9,401.5,596.6z"/>
<path class="st1" d="M1006.1,761.9c-0.3-0.7-67.9-212.4-101.5-317.6c-11.2-35.1-22.6-70.3-33.7-105.4c-3.4-10.6-10.2-17.4-20.7-20.6
	c-6.5-2-13.3-3.1-20.1-3.3c-17.8-0.2-35.6-0.2-53.5-0.3L816,457.1h0.1c0.5,2,1.1,3.9,1.7,5.8c4.8,17.6,9.6,35.3,14.5,52.9l0.3,1l0,0
	c22.3,81.5,44.6,163.1,66.8,244.6c0.9,3.5,2.4,4.5,5.8,4.5c23.7-0.2,89.1-0.2,98,0C1006.8,766,1007.7,765,1006.1,761.9z"/>
<path class="st0" d="M770.3,314.5c-3,0-4.1,1.1-4.8,3.9c-7.2,23.1-14.6,46-21.8,69c-22.1,69.6-44.2,139.3-66.3,209.1
	c17.4,54.2,53.3,167.6,53.3,167.6c0.5-0.9,1-2,1.2-3c18.7-68.5,37.4-137,56.2-205.6c9-32.9,18-65.9,27-98.7c0.3,0,0.6,0.1,0.9,0.1
	l-39.5-142.4H770.3z"/>
<path class="st1" d="M677.3,596.6c-16.2-50.8-32.4-101.6-48.6-152.4c-11.2-35.1-22.6-70.3-33.7-105.4c-3.4-10.6-10.2-17.4-20.7-20.6
	c-6.5-2-13.3-3.2-20.1-3.3c-17.8-0.2-35.6-0.2-53.5-0.3L540,457.2h0.1c0.5,2,1.1,3.9,1.7,5.8c4.8,17.6,9.6,35.3,14.5,52.9l0.3,1
	c22.3,81.5,44.5,163.1,66.7,244.6c0.2,1,0.6,1.9,1.2,2.7l0.2,0.2c0.2,0.9,1,1.3,2.7,1.5c0.6,0.1,1.2,0.1,1.9,0.1c12.6-0.1,98,0,98,0
	c2.6,0.1,3.8-0.5,3.4-2.2C730.6,763.4,694.7,650.9,677.3,596.6z"/>
</svg>
