<svg id="Layer_1" data-name="Layer 1" xmlns="http://www.w3.org/2000/svg" viewBox="0 0 350 350"><defs><style>.cls-1{fill:#fff;}</style></defs><title>cabby_white</title><path class="cls-1" d="M102.3,191.24c0-15.79-.11-31.57.07-47.35,0-4.33-.28-7.48-5.86-6.66s-3.91-3.41-4.26-6.3c-.45-3.82,1.06-5.19,5-5,6.67.27,13.37-.08,20,.14,3.8.12,5.81-.47,5.76-5.09-.05-5.2-2.67-12.32,1.26-15.17,3.54-2.58,10.26-.86,15.57-.92,6.42-.07,12.85.16,19.26-.08,3.85-.15,5.56.53,5.69,5.09.46,16.59.68,16.58,17.32,16.58q34.51,0,69,0c3.55,0,6.86-.57,6.7,5-.13,4.4-1.13,6.35-5.8,5.85-6-.63-4.43,4-4.44,7.11q-.11,46.94,0,93.88c0,4.55-.15,7.65-6.22,7.32-4.48-.24-5.62-2-5.13-5.85s-1.36-4.91-5.07-4.9q-56.18.17-112.34,0c-3.45,0-5.92.49-5.24,4.67.88,5.42-2,6-6.51,6-5.73,0-4.79-3.61-4.79-7Q102.29,214.91,102.3,191.24Zm72.29-8c18.43,0,36.86-.13,55.28.09,4.67,0,6.71-1,6.55-6.14-.35-11.21-.32-22.44,0-33.65.14-4.84-1.29-6.42-6.29-6.39q-55.28.3-110.56,0c-5.22,0-6.21,1.95-6.1,6.57.26,10.94.33,21.9,0,32.84-.17,5.19,1.32,6.9,6.69,6.81C138.27,183.05,156.43,183.25,174.59,183.25Zm34.14,40.42h5.59c24.45,0,24.36,0,22.08-24.7-.32-3.55-1.58-4.49-4.85-4.46q-23.18.15-46.37,0c-3.3,0-4.81.79-4.69,4.43.24,6.65.29,13.33,0,20-.18,4,1.37,4.95,5.06,4.84C193.26,223.5,201,223.67,208.73,223.67Zm-67.33,0c7.47,0,14.95-.16,22.41.06,3.81.12,5.93-.44,5.65-5.07a183.52,183.52,0,0,1,0-19.2c.16-3.83-1.1-5.09-5-5-9.34.24-18.68.08-28,.08-24.1,0-24,0-23,23.88.16,4.3,1.51,5.45,5.56,5.31C126.45,223.48,133.93,223.67,141.4,223.67Zm2.43-97.13c.8,0,1.59,0,2.39,0,3.46-.14,7.23,1.28,7.4-5,.18-6.78-3.93-5.33-7.63-5.4-2.65,0-5.32.21-7.94-.05-4-.4-4.09,2-4,4.89s-.35,6.07,4.26,5.6A51.36,51.36,0,0,1,143.83,126.54Z"/><path class="cls-1" d="M165.85,160.3c.26-5.51,3.24-8.55,8.45-8.76,5.43-.21,8.62,3.36,8.78,8.33.18,5.42-3.06,9.18-8.84,9C169,168.77,166.18,165.49,165.85,160.3Z"/><path class="cls-1" d="M209.16,203.35c2.4,0,4.82.19,7.21,0,4.86-.46,4.81,2.58,4.91,6.06s-.69,5.51-4.81,5.26c-4.79-.29-9.61-.16-14.41,0-4,.1-7.11.35-7.05-5.57.05-5.65,2.77-6,6.94-5.71C204.35,203.48,206.76,203.35,209.16,203.35Z"/><path class="cls-1" d="M141.51,203.35c2.67,0,5.37.21,8,0,4.52-.43,5.19,1.9,5.26,5.77.09,4.15-1.18,5.83-5.45,5.56-4.53-.28-9.09-.09-13.64,0-3.72,0-7.24.85-7.34-5.28-.11-6.3,3.25-6.2,7.53-6C137.76,203.43,139.63,203.35,141.51,203.35Z"/></svg>