<svg id="Layer_1" data-name="Layer 1" xmlns="http://www.w3.org/2000/svg" viewBox="0 0 350 350"><defs><style>.cls-1{fill:#264653;}</style></defs><title>chairs_blue</title><path class="cls-1" d="M163.53,199.72c-11-7.12-21-13.69-31.17-20.08-1.74-1.09-4-2.16-5.93-2-6.33.67-5.79-3.25-6.05-7.49-.35-5.83,3.48-5,6.8-4.72,4.47.43,6.65-1,5.78-5.69s3.31-11.46-5.42-13.12c-.53-.1-.62-3.44-.63-5.27-.06-9.35.92-18.84-.31-28-1.07-8,2.21-13.6,7.12-18.19,2.72-2.54,9.14-3.49,11,.82,1.66,3.83,3.47,3.82,6.33,3.82q24.06,0,48.11,0c2.76,0,5.2.69,6.52-3.66,1.38-4.54,9.26-2.44,9.43-1.93,1.56,4.89,8.8,5.3,8.24,12-.81,9.82.18,19.79-.39,29.65-.25,4.37,3.65,10.58-4.56,13.08-1.25.38-.29,7.47-.68,11.43-.72,7.31,4.69,4.71,8,4.89,2.81.15,4.1,1.21,3.56,3.81-.58,2.81,2.21,7.33-2.33,8.18-15.68,2.92-25.84,15.31-41,22.07,11.88,7.67,22.36,14.68,33.11,21.26,4,2.42,5,4.13,2.07,8.42-2.74,4-4.59,4.67-8.7,1.89-10.63-7.15-21.72-13.61-32.29-20.83-4-2.73-6.75-2.46-10.55.1-9.28,6.27-18.71,12.38-28.41,18-3.59,2.07-7.11,9.29-12.52.74-5.32-8.39,2.82-8.12,5.85-10.29C143.62,212.11,153.24,206.34,163.53,199.72Zm11.62-64.08h19.23c17.2,0,17,0,16.87-17.42,0-5.14-1.74-6.23-6.45-6.16-16.29.24-32.58.09-48.87.09-17.47,0-17.31,0-17,17.72.07,4.47,1.2,6,5.81,5.86C154.85,135.41,165,135.63,175.15,135.64Zm.17,12.1c-8.26,0-16.53.23-24.78-.1-4.27-.16-5.74,1.25-5.29,5.41a38.79,38.79,0,0,1,0,8c-.35,3.65,1.3,4.44,4.64,4.42q25.58-.21,51.16,0c3.45,0,4.81-1.12,4.55-4.57a43.52,43.52,0,0,1,0-8c.49-4.4-1.54-5.36-5.52-5.24C191.84,147.91,183.58,147.74,175.32,147.74ZM197.74,178H152.22c7.42,4.79,13.4,8.67,19.41,12.52,1.8,1.15,3.51,2,5.76.53C183.72,186.85,190.19,182.84,197.74,178Z"/></svg>