<svg id="Layer_1" data-name="Layer 1" xmlns="http://www.w3.org/2000/svg" viewBox="0 0 350 350"><defs><style>.cls-1{fill:#264653;}</style></defs><title>crane_small</title><path class="cls-1" d="M164.66,232.35c0-15.19-.18-30.38.1-45.57.09-4.73-1.49-7.92-4.91-11-10.55-9.63-20.81-19.58-32.65-30.8,13.19,0,24.29,0,35.38,0,2.79,0,4.27,2,6,3.62,7,6.56,14,13.14,20.88,19.91,2.83,2.8,5.07,3.55,7.59-.16a29.25,29.25,0,0,1,3.2-3.58c11.87-12.27,11.88-12.27,22.58,2.19-11.81,1.72-12.08,1.73-11.76,14.48.14,5.58-1.79,9.39-5.65,13.24-13,13-25.64,26.29-38.42,39.48Z"/></svg>