<svg id="Layer_1" data-name="Layer 1" xmlns="http://www.w3.org/2000/svg" viewBox="0 0 350 350"><defs><style>.cls-1{fill:#264653;}</style></defs><title>families_blue</title><path class="cls-1" d="M173.85,223.27q-50.92,0-101.86,0c-10.45,0-12.51-2.11-12.64-12.71-.13-10.16-.15-20.32,0-30.48.1-4.88-1-8.49-5.46-11.48-8.43-5.71-11.21-14.37-8.79-23.94,2.34-9.24,8.57-15.27,18.51-16.38,4.74-.52,6.45-2.58,7-7.62,1.16-11,8.85-17.84,20-17.88q83.82-.32,167.64-.06c11.75,0,18.09,5.56,20.56,17.34,1.07,5.12,3,7.87,8.55,8.51,8.51,1,14.19,6.43,16.77,14.2,2.78,8.33,1.94,17-5.17,22.83-7.33,6-9.19,13-8.74,21.82.43,8.53-.21,17.11.07,25.66.25,7.66-3.22,10.39-10.64,10.35-35.29-.18-70.58-.08-105.88-.08Zm48.91-110.84c-11.74,0-23.5.3-35.23-.13-6.16-.22-7.94,2.21-7.81,7.93.25,11.47.29,23,0,34.43-.17,6,2,7.89,8,7.82,21.88-.27,43.77-.32,65.66,0,5.95.09,7.31-2.21,6.93-7.44-.59-8.25,1-15.75,7.16-22,4.28-4.35,3.19-10,1.17-15s-6.56-5.64-11.37-5.6C245.72,112.47,234.24,112.41,222.76,112.43Zm-94.93-.11v.1c-11.75,0-23.5,0-35.25,0-4.51,0-9,.7-10.65,5.36s-3.62,9.83.39,14.42c6,6.86,8.13,14.86,7.36,23.75-.42,4.93,1.78,6.52,6.56,6.48q33.64-.24,67.29,0c4.83,0,6.68-1.49,6.58-6.43q-.35-18.42,0-36.85c.12-5.27-1.91-7-7.07-6.89C151.33,112.5,139.58,112.32,127.83,112.32Zm47.82,85.47c-25.69,0-51.38.09-77.06-.07-4.88,0-8.25.57-8.64,6.52-.49,7.37,1,9.09,10.08,9.11,50.84.07,101.67,0,152.51.23,6.15,0,7.75-2.12,7.71-7.94,0-5.63-1.2-8.08-7.54-8C227,198,201.34,197.78,175.65,197.79Zm44-9.86v0c11.19,0,22.4-.22,33.58.09,5.94.17,7.16-2.64,7.08-7.82-.07-5-.89-7.85-6.95-7.77-22.12.28-44.25.22-66.37,0-5.75-.05-7.31,2.42-7.18,7.73.12,5,.93,8.05,7,7.84C197.74,187.65,208.68,187.93,219.61,187.93Zm-88.68-15.54v.06c-11.19,0-22.39.12-33.58-.06-5.17-.08-7.92,1.35-7.82,7.22.1,5.52,1.55,8.39,7.73,8.34q33.18-.27,66.36.08c5.61.05,6.67-2.79,6.51-7.54-.16-4.46.26-8.46-6.42-8.21C152.8,172.69,141.86,172.39,130.93,172.39Zm147.79-9.94c12-.08,16.61-3.86,16.39-12.73-.19-7.73-4.84-12-12.9-11.88-8.58.15-11.83,4.77-12.11,16.13C269.92,161.06,273,163.66,278.72,162.45ZM79.9,154.29c0-12-3.52-16.36-12.51-16.33-7.86,0-12.39,4.51-12.5,12.37-.12,8.36,5,11.63,16.89,12.2C79.09,162.89,80.74,159.66,79.9,154.29Zm-.22,39.51h.09c0-5.06-.07-10.12,0-15.17.07-3.38-.82-5.7-4.75-5.86s-6,1.66-6,5.63q0,14.78,0,29.55c0,4.09,2.31,5.66,6.13,5.54,4.1-.13,4.48-2.94,4.46-6.11C79.66,202.86,79.68,198.33,79.68,193.8Zm190.92-1.11h0c0,5.05.1,10.1,0,15.14-.1,3.56,1.2,5.72,5,5.54,3.31-.16,5.3-1.58,5.23-5.45-.17-10.09-.22-20.19,0-30.27.1-4.18-2.42-5-5.45-5.05s-4.83,1.54-4.73,5C270.71,182.59,270.6,187.64,270.6,192.69Z"/></svg>