<svg id="Layer_1" data-name="Layer 1" xmlns="http://www.w3.org/2000/svg" viewBox="0 0 350 350"><defs><style>.cls-1{fill:#264653;}</style></defs><title>members_blue</title><path class="cls-1" d="M175.16,239.89c-4.81,0-9.63.06-14.44,0-4.26-.07-7.16-1.7-7.31-6.54-.16-5,2.59-6.4,7.06-6.39,3.51,0,7.77,1.2,8.19-4.8.39-5.46-3.15-6.38-7.1-7.53A65.21,65.21,0,0,1,115,147.1c2.47-32.28,24.71-56.47,55.86-60.74,22.94-3.15,49.77,15,59.44,40.24,14.21,37.06-4.06,75.48-41.73,88-2.37.79-5.39.49-6.89,3.34-2.57,4.93-.05,8.57,6.58,9,4.21.28,8.42.4,8.36,6.14s-3.8,7-8.67,6.91c-4.28-.09-8.56,0-12.83,0ZM221.55,153c.11-1.93.24-3.26.27-4.6.35-18.53-13.19-38.5-31-45.74-17.06-6.92-36.31-2.14-49.39,12.27-18.66,20.56-18,55.25,1.43,75.13,18,18.45,48.42,17.52,65.47-1.87C217.37,177.86,222.2,166.14,221.55,153Z"/><path class="cls-1" d="M173.73,176.29c-2.94-.57-4.39-3-6.18-4.84-2-2.14-.65-3.94.91-5.52,7.14-7.19,14.36-14.3,21.46-21.53,2.49-2.52,4.63-2.19,6.58.4,1.58,2.1,5.64,3.84,2.45,7.17-7.55,7.9-15.4,15.52-23.16,23.21A8.49,8.49,0,0,1,173.73,176.29Z"/><path class="cls-1" d="M176.33,125.93a13.72,13.72,0,0,1,6.22,5.33c1.51,2.43,0,4-1.5,5.55-6.93,7-14,13.9-20.85,20.95-2.84,2.91-5,2-7.23-.62-1.81-2.12-5-3.82-1.64-7.15,7.52-7.53,15-15.12,22.53-22.63A10.39,10.39,0,0,1,176.33,125.93Z"/></svg>