<svg id="Layer_1" data-name="Layer 1" xmlns="http://www.w3.org/2000/svg" xmlns:xlink="http://www.w3.org/1999/xlink" viewBox="0 0 1922.19 359.99"><defs><style>.cls-1{fill:none;}.cls-2{clip-path:url(#clip-path);}.cls-3{fill:url(#linear-gradient);}.cls-4{fill:url(#linear-gradient-2);}</style><clipPath id="clip-path"><path class="cls-1" d="M1923.82,147.31c-1.88-.61-3.75-1.31-5.66-1.82q-36.86-9.9-73.71-19.76Q1707.2,88.8,1570,51.83q-78.27-21.06-156.52-42.14c-4.35-1.18-7.93-.45-11.83,1.36q-60.21,28-120.51,55.72Q1152,126.47,1022.88,186.21c-17.79,8.24-35.52,16.61-53.28,24.92s-35.68,16.31-53.46,24.58a10.8,10.8,0,0,1-8.07.76q-36.78-10.12-73.65-19.92-92-24.63-184-49.21c-51.06-13.66-102.18-27.12-153.11-41.25-9.72-2.69-18.21-3.27-26.75,2.48a82.18,82.18,0,0,1-9.72,5.08q-104,51.29-208.08,102.55Q133.32,295,13.88,353.73c-2.74,1.35-5.93,2-8,4.59,0,.33,0,.66,0,1q956.77,0,1913.55.11c3.87,0,4.55-1,4.54-4.65Q1923.73,251,1923.82,147.31Z"/></clipPath><linearGradient id="linear-gradient" x1="-127.71" y1="-789.91" x2="2086.7" y2="1186.49" gradientTransform="matrix(1, 0, 0, -1, 0, 398.74)" gradientUnits="userSpaceOnUse"><stop offset="0" stop-color="#ef4746"/><stop offset="0.14" stop-color="#f04f4a"/><stop offset="0.36" stop-color="#f06256"/><stop offset="0.61" stop-color="#ef8268"/><stop offset="0.9" stop-color="#ecb082"/><stop offset="1" stop-color="#ebbf8c"/></linearGradient><linearGradient id="linear-gradient-2" x1="1434.92" y1="-638.82" x2="487.27" y2="1002.56" gradientTransform="matrix(1, 0, 0, -1, 0, 398.74)" gradientUnits="userSpaceOnUse"><stop offset="0" stop-color="#ef4746"/><stop offset="1" stop-color="#ebbf8c"/></linearGradient></defs><title>Poly_1</title><g class="cls-2"><rect class="cls-3" x="1.09" y="-323.13" width="1920" height="1080"/><path class="cls-4" d="M1920.09-322.13v1078H2.09v-1078h1918m1-1H1.09v1080h1920v-1080Z"/></g></svg>